<?xml version="1.0" encoding="utf-8"?>
<!-- Generator: Adobe Illustrator 27.8.0, SVG Export Plug-In . SVG Version: 6.00 Build 0)  -->
<svg version="1.1" id="Layer_1" xmlns="http://www.w3.org/2000/svg" xmlns:xlink="http://www.w3.org/1999/xlink" x="0px" y="0px"
	 viewBox="0 0 50 50" style="enable-background:new 0 0 50 50;" xml:space="preserve">
<style type="text/css">
	.st0{fill:#424A53;}
</style>
<g>
	<path class="st0" d="M36.5,18.4c0-1.5-1.2-2.7-2.7-2.7h-1.6c-0.1-2-1.8-3.6-3.8-3.6h-6.9c-2,0-3.7,1.6-3.8,3.6h-1.6
		c-1.5,0-2.7,1.2-2.7,2.7v4.9h2.6l-0.1,10.6c0,2.2,1.7,4,3.8,4h10.2c2.1,0,3.8-1.8,3.8-4l-0.1-10.6h2.6V18.4z M21.6,14.2h6.9
		c0.9,0,1.6,0.7,1.7,1.5H19.8C20,14.8,20.7,14.2,21.6,14.2z M31.9,33.9c0,1.1-0.8,2-1.8,2H19.9c-1,0-1.8-0.9-1.8-2l0.1-10.6h13.6
		L31.9,33.9z M34.4,21.2H15.6v-2.9c0-0.3,0.3-0.6,0.6-0.6h17.7c0.3,0,0.6,0.3,0.6,0.6V21.2z"/>
	<path class="st0" d="M22.3,33.8c0.6,0,1-0.5,1-1v-7.1c0-0.6-0.5-1-1-1c-0.6,0-1,0.5-1,1v7.1C21.2,33.3,21.7,33.8,22.3,33.8z"/>
	<path class="st0" d="M27.7,33.8c0.6,0,1-0.5,1-1v-7.1c0-0.6-0.5-1-1-1c-0.6,0-1,0.5-1,1v7.1C26.7,33.3,27.2,33.8,27.7,33.8z"/>
</g>
</svg>
