<?xml version="1.0" encoding="utf-8"?>
<!-- Generator: Adobe Illustrator 27.8.0, SVG Export Plug-In . SVG Version: 6.00 Build 0)  -->
<svg version="1.1" id="Layer_1" xmlns="http://www.w3.org/2000/svg" xmlns:xlink="http://www.w3.org/1999/xlink" x="0px" y="0px"
	 viewBox="0 0 50 50" style="enable-background:new 0 0 50 50;" xml:space="preserve">
<style type="text/css">
	.st0{fill:#FFFFFF;}
</style>
<g>
	<path class="st0" d="M25,15.8c-1,0-1.8,0.8-1.8,1.8l0,5.6l-5.6,0c-1,0-1.8,0.8-1.8,1.8c0,1,0.8,1.8,1.8,1.8l5.6,0l0,5.6
		c0,1,0.8,1.8,1.8,1.8c0.5,0,1-0.2,1.3-0.5c0.3-0.3,0.5-0.8,0.5-1.3l0-5.6l5.6,0c0.5,0,1-0.2,1.3-0.5c0.3-0.3,0.5-0.8,0.5-1.3
		c0-1-0.8-1.8-1.8-1.8l-5.6,0l0-5.6C26.8,16.6,26,15.8,25,15.8z"/>
	<path class="st0" d="M9.8,9.8c-8.4,8.4-8.4,22,0,30.4s22,8.4,30.4,0s8.4-22,0-30.4S18.2,1.4,9.8,9.8z M37.6,37.6
		c-7,7-18.3,7-25.3,0s-7-18.3,0-25.3s18.3-7,25.3,0S44.6,30.7,37.6,37.6z"/>
</g>
</svg>
