<?xml version="1.0" encoding="utf-8"?>
<!-- Generator: Adobe Illustrator 27.8.0, SVG Export Plug-In . SVG Version: 6.00 Build 0)  -->
<svg version="1.1" id="Layer_1" xmlns="http://www.w3.org/2000/svg" xmlns:xlink="http://www.w3.org/1999/xlink" x="0px" y="0px"
	 viewBox="0 0 50 50" style="enable-background:new 0 0 50 50;" xml:space="preserve">
<style type="text/css">
	.st0{fill:#A9C8E0;}
</style>
<g>
	<path class="st0" d="M13.5,15.2h23c0.5,0,1-0.4,1-1c0-0.5-0.4-1-1-1h-23c-0.5,0-1,0.4-1,1C12.5,14.7,13,15.2,13.5,15.2z"/>
	<path class="st0" d="M34.9,16.9H15.1c-1.4,0-2.6,1.2-2.6,2.6v14.6c0,1.4,1.2,2.6,2.6,2.6h19.7c1.4,0,2.6-1.2,2.6-2.6V19.6
		C37.5,18.1,36.3,16.9,34.9,16.9z M35.5,34.2c0,0.4-0.3,0.7-0.7,0.7H15.1c-0.4,0-0.7-0.3-0.7-0.7V19.6c0-0.4,0.3-0.7,0.7-0.7h19.7
		c0.4,0,0.7,0.3,0.7,0.7V34.2z"/>
	<rect x="17.8" y="21.8" class="st0" width="2.4" height="2.4"/>
	<rect x="23.9" y="21.8" class="st0" width="2.4" height="2.4"/>
	<rect x="29.8" y="21.8" class="st0" width="2.4" height="2.4"/>
	<rect x="17.8" y="25.9" class="st0" width="2.4" height="2.4"/>
	<rect x="23.9" y="25.9" class="st0" width="2.4" height="2.4"/>
	<rect x="29.8" y="25.9" class="st0" width="2.4" height="2.4"/>
	<rect x="17.8" y="30" class="st0" width="2.4" height="2.4"/>
	<rect x="23.9" y="30" class="st0" width="2.4" height="2.4"/>
	<rect x="29.8" y="30" class="st0" width="2.4" height="2.4"/>
</g>
</svg>
