<?xml version="1.0" encoding="utf-8"?>
<!-- Generator: Adobe Illustrator 27.8.0, SVG Export Plug-In . SVG Version: 6.00 Build 0)  -->
<svg version="1.1" id="Layer_1" xmlns="http://www.w3.org/2000/svg" xmlns:xlink="http://www.w3.org/1999/xlink" x="0px" y="0px"
	 viewBox="0 0 70 70" style="enable-background:new 0 0 70 70;" xml:space="preserve">
<style type="text/css">
	.st0{fill:#FFFFFF;}
	.st1{fill:#809BAD;}
</style>
<g>
	<path fill="#FFFFFF" d="M42.9,47.5H27.1c-2.6,0-4.6-2.1-4.6-4.6V27.1c0-2.6,2.1-4.6,4.6-4.6h15.8c2.6,0,4.6,2.1,4.6,4.6v15.8
		C47.5,45.4,45.4,47.5,42.9,47.5z"/>
	<path fill="#809BAD" d="M43.1,48H26.9c-2.7,0-4.9-2.2-4.9-4.9V26.9c0-2.7,2.2-4.9,4.9-4.9h16.1c2.7,0,4.9,2.2,4.9,4.9v16.1
		C48,45.8,45.8,48,43.1,48z M26.9,23c-2.2,0-4,1.8-4,4v16.1c0,2.2,1.8,4,4,4h16.1c2.2,0,4-1.8,4-4V26.9c0-2.2-1.8-4-4-4H26.9z"/>
</g>
</svg>
