<?xml version="1.0" encoding="utf-8"?>
<!-- Generator: Adobe Illustrator 27.8.0, SVG Export Plug-In . SVG Version: 6.00 Build 0)  -->
<svg version="1.1" id="Layer_1" xmlns="http://www.w3.org/2000/svg" xmlns:xlink="http://www.w3.org/1999/xlink" x="0px" y="0px"
	 viewBox="0 0 192 192" style="enable-background:new 0 0 192 192;" xml:space="preserve">
<style type="text/css">
	.st0{fill:url(#SVGID_1_);}
	.st1{fill:#FFFFFF;}
</style>
<linearGradient id="SVGID_1_" gradientUnits="userSpaceOnUse" x1="45.795" y1="146.8675" x2="198.77" y2="-10.3109">
	<stop  offset="0" style="stop-color:#0E3F81"/>
	<stop  offset="0.9464" style="stop-color:#0D73E7"/>
</linearGradient>
<path class="st0" d="M107.9,171.6h82.3c0.5-1.8,0.8-3.7,0.8-5.6V28.4C191,16.6,181.4,7,169.6,7H22.4C10.6,7,1,16.6,1,28.4v147.1
	c0,2.7,0.5,5.2,1.4,7.6l58.5-58.5L107.9,171.6z"/>
<polygon class="st1" points="181.9,68.9 181.9,42.2 111.6,42.2 85.2,17.2 85.2,95.5 60.9,71.3 36.7,95.5 36.7,32.3 10.1,57.7 
	10.1,159.6 10.1,159.6 10.1,159.6 10.1,162.6 60.9,111.7 111.8,162.6 111.8,162.6 181.9,162.6 181.9,136 111.8,136 111.8,116.1 
	181.9,116.1 181.9,89.5 111.8,89.5 111.8,68.9 "/>
</svg>
