<?xml version="1.0" encoding="utf-8"?>
<!-- Generator: Adobe Illustrator 27.8.0, SVG Export Plug-In . SVG Version: 6.00 Build 0)  -->
<svg version="1.1" id="Layer_1" xmlns="http://www.w3.org/2000/svg" xmlns:xlink="http://www.w3.org/1999/xlink" x="0px" y="0px"
	 viewBox="0 0 96 96" style="enable-background:new 0 0 96 96;" xml:space="preserve">
<style type="text/css">
	.st0{fill:url(#SVGID_1_);}
	.st1{fill:#FFFFFF;}
</style>
<g>
	<linearGradient id="SVGID_1_" gradientUnits="userSpaceOnUse" x1="23.1617" y1="73.6247" x2="98.8441" y2="-4.1372">
		<stop  offset="0" style="stop-color:#0E3F81"/>
		<stop  offset="0.9464" style="stop-color:#0D73E7"/>
	</linearGradient>
	<path class="st0" d="M53.9,85.9h40.7c0.2-0.9,0.4-1.8,0.4-2.8V15c0-5.9-4.7-10.6-10.6-10.6H11.6C5.7,4.4,1,9.2,1,15v72.8
		c0,1.3,0.3,2.6,0.7,3.7l29-29L53.9,85.9z"/>
	<polygon class="st1" points="90.5,35 90.5,21.9 55.7,21.9 42.6,9.5 42.6,48.2 30.6,36.2 18.7,48.2 18.7,17 5.5,29.5 5.5,79.9 
		5.5,79.9 5.5,79.9 5.5,81.4 30.6,56.2 55.8,81.4 55.8,81.4 90.5,81.4 90.5,68.2 55.8,68.2 55.8,58.4 90.5,58.4 90.5,45.2 
		55.8,45.2 55.8,35 	"/>
</g>
</svg>
