<?xml version="1.0" encoding="utf-8"?>
<!-- Generator: Adobe Illustrator 27.8.0, SVG Export Plug-In . SVG Version: 6.00 Build 0)  -->
<svg version="1.1" id="Layer_1" xmlns="http://www.w3.org/2000/svg" xmlns:xlink="http://www.w3.org/1999/xlink" x="0px" y="0px"
	 viewBox="0 0 144 144" style="enable-background:new 0 0 144 144;" xml:space="preserve">
<style type="text/css">
	.st0{fill:url(#SVGID_1_);}
	.st1{fill:#FFFFFF;}
</style>
<g>
	<linearGradient id="SVGID_1_" gradientUnits="userSpaceOnUse" x1="34.4784" y1="110.7096" x2="148.807" y2="-6.7605">
		<stop  offset="0" style="stop-color:#0E3F81"/>
		<stop  offset="0.9464" style="stop-color:#0D73E7"/>
	</linearGradient>
	<path class="st0" d="M80.9,129.2h61.5c0.4-1.3,0.6-2.7,0.6-4.2V22.2c0-8.8-7.2-16-16-16H17c-8.8,0-16,7.2-16,16v110
		c0,2,0.4,3.9,1,5.7l43.7-43.7L80.9,129.2z"/>
	<polygon class="st1" points="136.2,52.4 136.2,32.5 83.7,32.5 63.9,13.8 63.9,72.3 45.8,54.2 27.7,72.3 27.7,25.1 7.8,44.1 
		7.8,120.2 7.8,120.2 7.8,120.2 7.8,122.4 45.8,84.4 83.8,122.4 83.8,122.5 136.2,122.5 136.2,102.6 83.8,102.6 83.8,87.7 
		136.2,87.7 136.2,67.8 83.8,67.8 83.8,52.4 	"/>
</g>
</svg>
