<?xml version="1.0" encoding="utf-8"?>
<!-- Generator: Adobe Illustrator 27.8.0, SVG Export Plug-In . SVG Version: 6.00 Build 0)  -->
<svg version="1.1" id="Layer_1" xmlns="http://www.w3.org/2000/svg" xmlns:xlink="http://www.w3.org/1999/xlink" x="0px" y="0px"
	 viewBox="0 0 72 72" style="enable-background:new 0 0 72 72;" xml:space="preserve">
<style type="text/css">
	.st0{fill:url(#SVGID_1_);}
	.st1{fill:#FFFFFF;}
</style>
<g>
	<linearGradient id="SVGID_1_" gradientUnits="userSpaceOnUse" x1="17.5034" y1="55.0822" x2="73.8626" y2="-2.8256">
		<stop  offset="0" style="stop-color:#0E3F81"/>
		<stop  offset="0.9464" style="stop-color:#0D73E7"/>
	</linearGradient>
	<path class="st0" d="M40.4,64.2h30.3c0.2-0.7,0.3-1.4,0.3-2.1V11.4c0-4.4-3.5-7.9-7.9-7.9H8.9C4.5,3.6,1,7.1,1,11.4v54.2
		c0,1,0.2,1.9,0.5,2.8l21.6-21.6L40.4,64.2z"/>
	<polygon class="st1" points="67.7,26.3 67.7,16.5 41.8,16.5 32,7.3 32,36.2 23.1,27.2 14.1,36.2 14.1,12.9 4.3,22.2 4.3,59.8 
		4.3,59.8 4.3,59.8 4.3,60.9 23.1,42.1 41.8,60.9 41.8,60.9 67.7,60.9 67.7,51.1 41.8,51.1 41.8,43.7 67.7,43.7 67.7,33.9 
		41.8,33.9 41.8,26.3 	"/>
</g>
</svg>
