<?xml version="1.0" encoding="utf-8"?>
<!-- Generator: Adobe Illustrator 27.8.0, SVG Export Plug-In . SVG Version: 6.00 Build 0)  -->
<svg version="1.1" id="Layer_1" xmlns="http://www.w3.org/2000/svg" xmlns:xlink="http://www.w3.org/1999/xlink" x="0px" y="0px"
	 viewBox="0 0 48 48" style="enable-background:new 0 0 48 48;" xml:space="preserve">
<style type="text/css">
	.st0{fill:url(#SVGID_1_);}
	.st1{fill:#FFFFFF;}
</style>
<g>
	<linearGradient id="SVGID_1_" gradientUnits="userSpaceOnUse" x1="11.8451" y1="36.5397" x2="48.8811" y2="-1.514">
		<stop  offset="0" style="stop-color:#0E3F81"/>
		<stop  offset="0.9464" style="stop-color:#0D73E7"/>
	</linearGradient>
	<path class="st0" d="M26.9,42.5h19.9c0.1-0.4,0.2-0.9,0.2-1.4V7.9c0-2.9-2.3-5.2-5.2-5.2H6.2C3.3,2.7,1,5,1,7.9v35.6
		c0,0.6,0.1,1.3,0.3,1.8l14.2-14.2L26.9,42.5z"/>
	<polygon class="st1" points="44.8,17.7 44.8,11.2 27.8,11.2 21.4,5.2 21.4,24.1 15.5,18.2 9.6,24.1 9.6,8.8 3.2,14.9 3.2,39.6 
		3.2,39.6 3.2,39.6 3.2,40.3 15.5,28 27.8,40.3 27.8,40.3 44.8,40.3 44.8,33.9 27.8,33.9 27.8,29.1 44.8,29.1 44.8,22.6 27.8,22.6 
		27.8,17.7 	"/>
</g>
</svg>
