<?xml version="1.0" encoding="utf-8"?>
<!-- Generator: Adobe Illustrator 25.4.8, SVG Export Plug-In . SVG Version: 6.00 Build 0)  -->
<svg version="1.1" id="Layer_1" xmlns="http://www.w3.org/2000/svg" xmlns:xlink="http://www.w3.org/1999/xlink" x="0px" y="0px"
	 viewBox="0 0 50 50" style="enable-background:new 0 0 50 50;" xml:space="preserve">
<style type="text/css">
	.st0{fill:#809BAD;}
</style>
<path class="st0" d="M27.1,46v-4.2c1.5-0.2,2.9-0.6,4.3-1.2s2.7-1.4,3.9-2.3l3.1,3.1c-1.7,1.3-3.4,2.3-5.3,3.1
	C31.1,45.3,29.1,45.8,27.1,46z M41.3,38.3l-3-3c0.9-1.2,1.7-2.4,2.2-3.8c0.6-1.4,0.9-2.9,1.2-4.4h4.3c-0.3,2.2-0.8,4.2-1.6,6.1
	C43.7,35.1,42.6,36.8,41.3,38.3z M41.7,22.9c-0.2-1.6-0.6-3.1-1.2-4.5s-1.3-2.6-2.2-3.8l3-3c1.3,1.5,2.4,3.3,3.2,5.2
	c0.8,1.9,1.3,3.9,1.5,6H41.7z M22.8,46c-5.4-0.6-9.9-2.9-13.5-6.9S3.9,30.4,3.9,25c0-5.5,1.8-10.2,5.4-14.1S17.5,4.6,22.8,4v4.2
	c-4.2,0.6-7.7,2.5-10.5,5.6S8.2,20.7,8.2,25s1.4,8,4.2,11.1c2.8,3.1,6.3,5,10.5,5.7V46z M35.4,11.7c-1.3-0.9-2.6-1.7-4-2.3
	s-2.8-1-4.3-1.2V4c2.1,0.2,4.1,0.7,6,1.5c1.9,0.8,3.7,1.9,5.3,3.2L35.4,11.7z M25,35.6c-2-1.7-4-3.6-5.8-5.5s-2.7-4.3-2.7-6.9
	c0-2.4,0.8-4.4,2.5-6.1c1.6-1.7,3.6-2.5,6-2.5s4.4,0.8,6,2.5s2.5,3.7,2.5,6.1c0,2.6-0.9,4.9-2.7,6.9S27,33.8,25,35.6z M25,25
	c0.6,0,1.2-0.2,1.6-0.7c0.4-0.4,0.7-1,0.7-1.6c0-0.6-0.2-1.1-0.7-1.6c-0.4-0.5-1-0.7-1.6-0.7s-1.2,0.2-1.6,0.7s-0.7,1-0.7,1.6
	c0,0.6,0.2,1.2,0.7,1.6S24.4,25,25,25z"/>
</svg>
