<?xml version="1.0" encoding="utf-8"?>
<!-- Generator: Adobe Illustrator 27.8.0, SVG Export Plug-In . SVG Version: 6.00 Build 0)  -->
<svg version="1.1" id="Layer_1" xmlns="http://www.w3.org/2000/svg" xmlns:xlink="http://www.w3.org/1999/xlink" x="0px" y="0px"
	 viewBox="0 0 70 70" style="enable-background:new 0 0 70 70;" xml:space="preserve">
<style type="text/css">
	.st0{fill:#809BAD;}
</style>
<g>
	<path class="st0" d="M35,21c-6.6,0-12,5.4-12,12c0,2.5,0.7,4.7,2,6.6l1.5-1.5C25.6,36.7,25,34.9,25,33c0-5.5,4.5-10,10-10
		s10,4.5,10,10c0,1.9-0.5,3.7-1.5,5.2l1.5,1.5c1.3-1.9,2-4.2,2-6.7C47,26.4,41.6,21,35,21z"/>
	<path class="st0" d="M35,25c-4.4,0-8.1,3.6-8.1,8.1c0,1.4,0.3,2.7,0.9,3.8l1.5-1.5C29.1,34.6,29,33.8,29,33c0-3.3,2.7-6,6-6
		s6,2.7,6,6c0,0.8-0.2,1.6-0.5,2.3l1.5,1.5c0.6-1.1,1-2.4,1-3.8C43.1,28.6,39.4,25,35,25z"/>
	<path class="st0" d="M26.9,40.7h5v4.6c0,0.6,0.5,1,1,1c0.6,0,1-0.5,1-1v-6.6h-2.2l3.2-3.2l3.2,3.2H36V48c0,0.6,0.5,1,1,1
		c0.6,0,1-0.5,1-1v-7.3h5L35,32.6L26.9,40.7z"/>
</g>
</svg>
