<?xml version="1.0" encoding="utf-8"?>
<!-- Generator: Adobe Illustrator 25.4.8, SVG Export Plug-In . SVG Version: 6.00 Build 0)  -->
<svg version="1.1" id="Layer_1" xmlns="http://www.w3.org/2000/svg" xmlns:xlink="http://www.w3.org/1999/xlink" x="0px" y="0px"
	 viewBox="0 0 50 50" style="enable-background:new 0 0 50 50;" xml:space="preserve">
<style type="text/css">
	.st0{fill:#809BAD;}
</style>
<g>
	<path class="st0" d="M25,4C15.1,4,7,12.1,7,22c0,3.8,1.1,7.1,3,9.9l2.2-2.2C10.9,27.6,10,24.9,10,22c0-8.2,6.8-15,15-15
		s15,6.8,15,15c0,2.9-0.8,5.6-2.2,7.8l2.2,2.3c1.9-2.9,3-6.3,3-10.1C43,12.1,34.9,4,25,4z"/>
	<path class="st0" d="M25,10c-6.6,0-12.2,5.4-12.2,12.1c0,2.1,0.4,4.1,1.3,5.7l2.2-2.2C16.2,24.4,16,23.2,16,22c0-4.9,4.1-9,9-9
		s9,4.1,9,9c0,1.2-0.3,2.4-0.8,3.4l2.2,2.2c0.9-1.6,1.5-3.6,1.5-5.7C37.1,15.4,31.6,10,25,10z"/>
	<path class="st0" d="M12.8,33.6h7.5v6.9c0,0.9,0.8,1.5,1.5,1.5c0.9,0,1.5-0.8,1.5-1.5v-9.9h-3.3l4.8-4.8l4.8,4.8h-3.2v13.9
		c0,0.9,0.8,1.5,1.5,1.5c0.9,0,1.5-0.8,1.5-1.5V33.6H37L25,21.4L12.8,33.6z"/>
</g>
</svg>
