<?xml version="1.0" encoding="utf-8"?>
<!-- Generator: Adobe Illustrator 25.4.8, SVG Export Plug-In . SVG Version: 6.00 Build 0)  -->
<svg version="1.1" id="Layer_1" xmlns="http://www.w3.org/2000/svg" xmlns:xlink="http://www.w3.org/1999/xlink" x="0px" y="0px"
	 viewBox="0 0 50 50" style="enable-background:new 0 0 50 50;" xml:space="preserve">
<style type="text/css">
	.st0{fill:#809BAD;}
</style>
<path class="st0" d="M41.7,11.7h-9.3V8.9c0-1.3-1.1-2.3-2.4-2.3h-9.7c-1.3,0-2.4,1-2.4,2.3v2.8H8.3C5.9,11.7,4,13.6,4,16v23
	c0,2.4,1.9,4.3,4.3,4.3h33.3c2.4,0,4.3-1.9,4.3-4.3V16C46,13.6,44.1,11.7,41.7,11.7z M21,9.9h8v1.8h-8V9.9z M8.3,15h33.3
	c0.6,0,1,0.5,1,1v7.4H28.1v-1.3c0-0.5-0.4-0.9-0.9-0.9h-4.5c-0.5,0-0.9,0.4-0.9,0.9v1.3H7.3V16C7.3,15.4,7.8,15,8.3,15z M41.7,40.1
	H8.3c-0.6,0-1-0.5-1-1V26.7h14.6V29c0,0.5,0.4,0.9,0.9,0.9h4.5c0.5,0,0.9-0.4,0.9-0.9v-2.3h14.6v12.4C42.7,39.6,42.2,40.1,41.7,40.1
	z"/>
</svg>
