<?xml version="1.0" encoding="utf-8"?>
<!-- Generator: Adobe Illustrator 27.8.0, SVG Export Plug-In . SVG Version: 6.00 Build 0)  -->
<svg version="1.1" id="Layer_1" xmlns="http://www.w3.org/2000/svg" xmlns:xlink="http://www.w3.org/1999/xlink" x="0px" y="0px"
	 viewBox="0 0 70 70" style="enable-background:new 0 0 70 70;" xml:space="preserve">
<style type="text/css">
	.st0{fill:#809BAD;}
</style>
<path class="st0" d="M36.2,47.5V45c0.9-0.1,1.7-0.4,2.6-0.7c0.8-0.4,1.6-0.8,2.3-1.3l1.8,1.8c-1,0.8-2,1.4-3.2,1.9
	S37.5,47.3,36.2,47.5z M44.7,42.9l-1.8-1.8c0.5-0.7,1-1.4,1.3-2.3c0.3-0.8,0.6-1.7,0.7-2.6h2.6c-0.2,1.3-0.5,2.5-1,3.6
	C46.1,41,45.5,42,44.7,42.9z M44.9,33.7c-0.1-0.9-0.4-1.8-0.7-2.6c-0.3-0.8-0.8-1.6-1.3-2.2l1.8-1.8c0.8,0.9,1.4,1.9,1.9,3.1
	c0.5,1.1,0.8,2.3,0.9,3.6H44.9z M33.7,47.5c-3.2-0.4-5.9-1.7-8-4.1c-2.1-2.4-3.2-5.1-3.2-8.4c0-3.2,1.1-6,3.2-8.4s4.8-3.7,8-4.1V25
	c-2.5,0.4-4.6,1.5-6.2,3.4S25,32.5,25,35c0,2.5,0.8,4.7,2.5,6.6s3.7,3,6.2,3.4V47.5z M41.2,27.1c-0.8-0.6-1.5-1-2.4-1.4
	c-0.8-0.4-1.7-0.6-2.6-0.7v-2.5c1.2,0.1,2.4,0.4,3.5,0.9s2.2,1.1,3.2,1.9L41.2,27.1z M35,41.3c-1.2-1-2.3-2.1-3.4-3.3
	c-1.1-1.2-1.6-2.5-1.6-4.1c0-1.4,0.5-2.6,1.5-3.6s2.2-1.5,3.6-1.5c1.4,0,2.6,0.5,3.6,1.5c1,1,1.5,2.2,1.5,3.6c0,1.6-0.5,2.9-1.6,4.1
	C37.3,39.1,36.2,40.2,35,41.3z M35,35c0.4,0,0.7-0.1,1-0.4c0.3-0.3,0.4-0.6,0.4-1c0-0.4-0.1-0.7-0.4-0.9c-0.3-0.3-0.6-0.4-1-0.4
	s-0.7,0.1-1,0.4c-0.3,0.3-0.4,0.6-0.4,0.9c0,0.4,0.1,0.7,0.4,1C34.3,34.9,34.6,35,35,35z"/>
</svg>
