<?xml version="1.0" encoding="utf-8"?>
<!-- Generator: Adobe Illustrator 27.8.0, SVG Export Plug-In . SVG Version: 6.00 Build 0)  -->
<svg version="1.1" id="Layer_1" xmlns="http://www.w3.org/2000/svg" xmlns:xlink="http://www.w3.org/1999/xlink" x="0px" y="0px"
	 viewBox="0 0 70 70" style="enable-background:new 0 0 70 70;" xml:space="preserve">
<style type="text/css">
	.st0{fill:#809BAD;}
</style>
<path class="st0" d="M44.9,27.1h-5.6v-1.6c0-0.8-0.7-1.4-1.5-1.4h-5.8c-0.8,0-1.5,0.6-1.5,1.4v1.6h-5.6c-1.4,0-2.6,1.2-2.6,2.6v13.7
	c0,1.4,1.2,2.6,2.6,2.6h19.8c1.4,0,2.6-1.2,2.6-2.6V29.6C47.5,28.2,46.3,27.1,44.9,27.1z M32.6,26h4.8v1h-4.8V26z M25.1,29h19.8
	c0.3,0,0.6,0.3,0.6,0.6V34h-8.7v-0.8c0-0.3-0.2-0.5-0.5-0.5h-2.7c-0.3,0-0.5,0.2-0.5,0.5V34h-8.7v-4.4C24.5,29.3,24.7,29,25.1,29z
	 M44.9,44H25.1c-0.3,0-0.6-0.3-0.6-0.6V36h8.7v1.4c0,0.3,0.2,0.5,0.5,0.5h2.7c0.3,0,0.5-0.2,0.5-0.5V36h8.7v7.4
	C45.5,43.7,45.3,44,44.9,44z"/>
</svg>
