<?xml version="1.0" encoding="utf-8"?>
<!-- Generator: Adobe Illustrator 27.8.0, SVG Export Plug-In . SVG Version: 6.00 Build 0)  -->
<svg version="1.1" id="Layer_1" xmlns="http://www.w3.org/2000/svg" xmlns:xlink="http://www.w3.org/1999/xlink" x="0px" y="0px"
	 viewBox="0 0 26.4 22" style="enable-background:new 0 0 26.4 22;" xml:space="preserve">
<style type="text/css">
	.st0{fill:#FFFFFF;}
</style>
<g>
	<path class="st0" d="M23.4,4.3h-4.5l-0.5-2.5c-0.2-0.8-0.9-1.4-1.7-1.4h-7C8.9,0.4,8.2,1,8,1.8L7.5,4.3H3C1.6,4.3,0.4,5.5,0.4,7v12
		c0,1.4,1.2,2.6,2.6,2.6h20.3c1.4,0,2.6-1.2,2.6-2.6V7C26,5.5,24.8,4.3,23.4,4.3z M7.9,13.9c0-2.9,2.4-5.3,5.3-5.3s5.3,2.4,5.3,5.3
		c0,2.9-2.4,5.3-5.3,5.3S7.9,16.8,7.9,13.9z M24,18.9c0,0.3-0.3,0.6-0.6,0.6h-5.5c1.6-1.3,2.7-3.4,2.7-5.6c0-4-3.3-7.3-7.3-7.3
		c-4,0-7.3,3.3-7.3,7.3c0,2.3,1,4.3,2.7,5.6H3.1c-0.3,0-0.6-0.3-0.6-0.6V7c0-0.3,0.3-0.6,0.6-0.6h5.1c0.6,0,1.1-0.4,1.3-1l0.6-2.9
		h6.6l0.6,2.9c0.1,0.6,0.6,1,1.3,1h5.1C23.7,6.3,24,6.6,24,7V18.9z"/>
	<path class="st0" d="M15.9,12.9h-1.7v-1.7c0-0.6-0.4-1-1-1s-1,0.4-1,1v1.7h-1.7c-0.6,0-1,0.4-1,1s0.4,1,1,1h1.7v1.7
		c0,0.6,0.4,1,1,1s1-0.4,1-1v-1.7h1.7c0.6,0,1-0.4,1-1S16.5,12.9,15.9,12.9z"/>
</g>
</svg>
