<?xml version="1.0" encoding="utf-8"?>
<!-- Generator: Adobe Illustrator 27.8.0, SVG Export Plug-In . SVG Version: 6.00 Build 0)  -->
<svg version="1.1" id="Layer_1" xmlns="http://www.w3.org/2000/svg" xmlns:xlink="http://www.w3.org/1999/xlink" x="0px" y="0px"
	 viewBox="0 0 192 192" style="enable-background:new 0 0 192 192;" xml:space="preserve">
<style type="text/css">
	.st0{fill:#006DBA;}
	.st1{fill:#FFFFFF;}
</style>
<g>
	<path fill="#006DBA" d="M108,173h82.7c0.5-1.8,0.8-3.7,0.8-5.6V29c0-11.9-9.6-21.5-21.5-21.5H22C10.1,7.5,0.5,17.1,0.5,29v147.9
		c0,2.7,0.5,5.2,1.4,7.6l58.8-58.8L108,173z"/>
	<polygon fill="#FFFFFF" points="182.4,69.7 182.4,42.9 111.7,42.9 85.1,17.8 85.1,96.4 60.7,72.1 36.4,96.4 36.4,32.9 9.6,58.4 
		9.6,160.8 9.6,160.8 9.6,160.9 9.6,163.9 60.7,112.7 111.9,163.9 111.9,163.9 182.4,163.9 182.4,137.1 111.9,137.1 111.9,117.1 
		182.4,117.1 182.4,90.4 111.9,90.4 111.9,69.7 	"/>
</g>
</svg>
