<?xml version="1.0" encoding="utf-8"?>
<!-- Generator: Adobe Illustrator 27.8.0, SVG Export Plug-In . SVG Version: 6.00 Build 0)  -->
<svg version="1.1" id="Layer_1" xmlns="http://www.w3.org/2000/svg" xmlns:xlink="http://www.w3.org/1999/xlink" x="0px" y="0px"
	 viewBox="0 0 151.7 170.6" style="enable-background:new 0 0 151.7 170.6;" xml:space="preserve">
<style type="text/css">
	.st0{fill:#FFFFFF;}
</style>
<g>
	<path class="st0" d="M124.9,18.2H74.5c-5.2,0-9.5,4.3-9.5,9.5v44.2c-2-0.5-4.1-0.7-6.2-0.7c-5.4,0-10.6,1.6-15,4.7
		c-4.3,3-7.6,7.1-9.5,12l5.1,2c1.5-3.9,4.2-7.1,7.6-9.5c3.5-2.4,7.6-3.7,11.9-3.7c11.6,0,21,9.4,21,21c0,11.6-9.4,21-21,21
		c-4.3,0-8.4-1.3-11.9-3.7c-3.4-2.4-6.1-5.7-7.6-9.5l-5.1,2c1.9,4.9,5.2,9,9.5,12c4.4,3.1,9.6,4.7,15,4.7c2.1,0,4.2-0.3,6.2-0.7
		v19.7c0,5.2,4.3,9.5,9.5,9.5h50.3c5.2,0,9.5-4.3,9.5-9.5V27.7C134.3,22.4,130.1,18.2,124.9,18.2z M124.9,147H74.5
		c-2.2,0-4-1.8-4-4.1v-21.7c8.7-4.3,14.7-13.3,14.7-23.7s-6-19.4-14.7-23.7V27.7c0-2.2,1.8-4.1,4-4.1h50.3c2.2,0,4,1.8,4,4.1v43.5
		H86.4v5.4h42.5v7.6H93.4v5.4h35.5v53.3C128.9,145.1,127.1,147,124.9,147z"/>
	<polygon class="st0" points="52.3,107.1 56.1,110.9 69.5,97.5 56.1,84.1 52.3,87.9 59.1,94.8 17.3,94.8 17.3,100.2 59.1,100.2 	"/>
	<path class="st0" d="M95.5,55.9c0-2.2,1.8-4,4-4h8.7c2.2,0,4,1.8,4,4v7.4h4v-7.4c0-4.4-3.6-8.1-8.1-8.1h-2.3
		c3.2-0.9,5.5-3.8,5.5-7.3c0-4.2-3.4-7.6-7.6-7.6s-7.6,3.4-7.6,7.6c0,3.5,2.3,6.4,5.5,7.3h-2.3c-4.4,0-8.1,3.6-8.1,8.1v7.4h4V55.9z
		 M100.3,40.5c0-2,1.6-3.5,3.5-3.5s3.5,1.6,3.5,3.5c0,2-1.6,3.5-3.5,3.5S100.3,42.5,100.3,40.5z"/>
	<path class="st0" d="M94.4,117h25.4V97.2H94.4V117z M99.8,102.7h14.5v8.9H99.8V102.7z"/>
	<path class="st0" d="M79.6,139.1h40.1v-14.4H79.6V139.1z M85.1,130.1h29.2v3.5H85.1V130.1z"/>
</g>
</svg>
