<?xml version="1.0" encoding="utf-8"?>
<!-- Generator: Adobe Illustrator 27.8.0, SVG Export Plug-In . SVG Version: 6.00 Build 0)  -->
<svg version="1.1" id="Layer_1" xmlns="http://www.w3.org/2000/svg" xmlns:xlink="http://www.w3.org/1999/xlink" x="0px" y="0px"
	 viewBox="0 0 50 50" style="enable-background:new 0 0 50 50;" xml:space="preserve">
<style type="text/css">
	.st0{fill:#008EDF;}
</style>
<g>
	<path class="st0" d="M25,7.5C15.4,7.5,7.5,15.4,7.5,25S15.4,42.5,25,42.5S42.5,34.6,42.5,25S34.6,7.5,25,7.5z M25,39.6
		c-8,0-14.6-6.5-14.6-14.6S17,10.4,25,10.4S39.6,17,39.6,25S33,39.6,25,39.6z"/>
	<polygon class="st0" points="18.3,28.9 18.3,31.9 21.3,31.9 28.7,24.2 25.8,21.2 	"/>
	<path class="st0" d="M29.7,18.4c-0.3-0.3-0.9-0.3-1.2,0l-1.7,1.7l2.9,2.9l1.7-1.7c0.3-0.3,0.3-0.9,0-1.2L29.7,18.4z"/>
</g>
</svg>
