<?xml version="1.0" encoding="utf-8"?>
<!-- Generator: Adobe Illustrator 27.8.0, SVG Export Plug-In . SVG Version: 6.00 Build 0)  -->
<svg version="1.1" id="Layer_1" xmlns="http://www.w3.org/2000/svg" xmlns:xlink="http://www.w3.org/1999/xlink" x="0px" y="0px"
	 viewBox="0 0 50 50" style="enable-background:new 0 0 50 50;" xml:space="preserve">
<style type="text/css">
	.st0{fill:#FE1B1B;}
</style>
<g>
	<path class="st0" d="M30.3,19.7c-0.6-0.6-1.5-0.6-2.1,0L25,22.9l-3.2-3.2c-0.6-0.6-1.5-0.6-2.1,0c-0.6,0.6-0.6,1.5,0,2.1l3.2,3.2
		l-3.2,3.2c-0.6,0.6-0.6,1.5,0,2.1c0.3,0.3,0.7,0.4,1,0.4s0.8-0.1,1-0.4l3.2-3.2l3.2,3.2c0.3,0.3,0.7,0.4,1,0.4s0.8-0.1,1-0.4
		c0.6-0.6,0.6-1.5,0-2.1L27.1,25l3.2-3.2C30.9,21.2,30.9,20.3,30.3,19.7z"/>
	<path class="st0" d="M25,7.5C15.4,7.5,7.5,15.4,7.5,25S15.4,42.5,25,42.5S42.5,34.6,42.5,25S34.6,7.5,25,7.5z M25,39.6
		c-8,0-14.6-6.5-14.6-14.6S17,10.4,25,10.4S39.6,17,39.6,25S33,39.6,25,39.6z"/>
</g>
</svg>
