<?xml version="1.0" encoding="utf-8"?>
<!-- Generator: Adobe Illustrator 27.8.0, SVG Export Plug-In . SVG Version: 6.00 Build 0)  -->
<svg version="1.1" id="Layer_1" xmlns="http://www.w3.org/2000/svg" xmlns:xlink="http://www.w3.org/1999/xlink" x="0px" y="0px"
	 viewBox="0 0 50 50" style="enable-background:new 0 0 50 50;" xml:space="preserve">
<style type="text/css">
	.st0{fill:#BD8A00;}
</style>
<g>
	<path class="st0" d="M25,7.5C15.3,7.5,7.5,15.4,7.5,25S15.3,42.5,25,42.5S42.5,34.6,42.5,25S34.6,7.5,25,7.5z M25,39.6
		c-8,0-14.6-6.5-14.6-14.6S17,10.4,25,10.4S39.6,17,39.6,25S33,39.6,25,39.6z"/>
	<path class="st0" d="M25,22.7c-0.8,0-1.5,0.7-1.5,1.5v8.3c0,0.8,0.7,1.5,1.5,1.5c0.8,0,1.5-0.7,1.5-1.5v-8.3
		C26.5,23.3,25.8,22.7,25,22.7z"/>
	<path class="st0" d="M25,17.5c-1.1,0-2.1,0.9-2.1,2.1s0.9,2.1,2.1,2.1s2.1-0.9,2.1-2.1S26.1,17.5,25,17.5z"/>
</g>
</svg>
