<?xml version="1.0" encoding="utf-8"?>
<!-- Generator: Adobe Illustrator 27.8.0, SVG Export Plug-In . SVG Version: 6.00 Build 0)  -->
<svg version="1.1" id="Layer_1" xmlns="http://www.w3.org/2000/svg" xmlns:xlink="http://www.w3.org/1999/xlink" x="0px" y="0px"
	 viewBox="0 0 192 192" style="enable-background:new 0 0 192 192;" xml:space="preserve">
<style type="text/css">
	.st0{fill:url(#SVGID_1_);}
	.st1{fill:#FFFFFF;}
</style>
<g>
	
	<linearGradient id="SVGID_1_" gradientUnits="userSpaceOnUse" x1="72.2106" y1="71.4627" x2="144.6724" y2="145.9157" gradientTransform="matrix(1 0 0 -1 0 192)">
		<stop  offset="0" style="stop-color:#0E3F81"/>
		<stop  offset="0.9464" style="stop-color:#0D73E7"/>
	</linearGradient>
	<path class="st0" d="M101.6,132.3h39c0.2-0.9,0.4-1.8,0.4-2.7V64.4c0-5.6-4.5-10.1-10.1-10.1H61.1c-5.6,0-10.1,4.5-10.1,10.1v69.7
		c0,1.3,0.2,2.5,0.7,3.6L79.4,110L101.6,132.3z"/>
	<polygon fill="#FFFFFF" points="136.7,83.6 136.7,71 103.4,71 90.9,59.1 90.9,96.2 79.4,84.8 67.9,96.2 67.9,66.3 55.3,78.3 
		55.3,126.6 55.3,126.6 55.3,126.6 55.3,128 79.4,103.9 103.5,128 103.5,128 136.7,128 136.7,115.4 103.5,115.4 103.5,106 
		136.7,106 136.7,93.4 103.5,93.4 103.5,83.6 	"/>
</g>
</svg>
