<?xml version="1.0" encoding="utf-8"?>
<!-- Generator: Adobe Illustrator 27.8.0, SVG Export Plug-In . SVG Version: 6.00 Build 0)  -->
<svg version="1.1" id="Layer_1" xmlns="http://www.w3.org/2000/svg" xmlns:xlink="http://www.w3.org/1999/xlink" x="0px" y="0px"
	 viewBox="0 0 50 50" style="enable-background:new 0 0 50 50;" xml:space="preserve">
<style type="text/css">
	.st0{fill:#FFFFFF;}
</style>
<g>
	<path class="st0" d="M34.7,14.7H15.3c-1.6,0-2.8,1.3-2.8,2.8v15c0,1.6,1.3,2.8,2.8,2.8h19.4c1.6,0,2.8-1.3,2.8-2.8v-15
		C37.5,15.9,36.2,14.7,34.7,14.7z M35.7,32.5c0,0.6-0.5,1-1,1H15.3c-0.6,0-1-0.5-1-1v-15c0-0.6,0.5-1,1-1h19.4c0.6,0,1,0.5,1,1V32.5
		z"/>
	<path class="st0" d="M32.6,19.1L25,25l-7.6-5.9c-0.4-0.3-0.9-0.2-1.2,0.2c-0.3,0.4-0.2,0.9,0.2,1.2l8.6,6.8l8.6-6.8
		c0.4-0.3,0.5-0.9,0.2-1.2C33.5,18.9,32.9,18.8,32.6,19.1z"/>
</g>
</svg>
