<?xml version="1.0" encoding="utf-8"?>
<!-- Generator: Adobe Illustrator 27.8.0, SVG Export Plug-In . SVG Version: 6.00 Build 0)  -->
<svg version="1.1" id="Layer_1" xmlns="http://www.w3.org/2000/svg" xmlns:xlink="http://www.w3.org/1999/xlink" x="0px" y="0px"
	 viewBox="0 0 50 50" style="enable-background:new 0 0 50 50;" xml:space="preserve">
<style type="text/css">
	.st0{fill:#FFFFFF;}
</style>
<g>
	<path class="st0" d="M37.4,32.1c-0.2-1.3-0.9-2.6-1.7-3.4C34,27,32,26.3,30,26.8c-1.5,0.3-2.6,1.4-3.2,2.3
		c-0.9-0.7-2.2-1.7-3.3-2.8c-1.1-1.1-2-2.3-2.6-3.1c0.9-0.6,2-1.7,2.3-3.2c0.4-2-0.2-4-2-5.7c-1.6-1.6-5.2-2.7-7.2-0.7
		c-0.5,0.5-2,2.3-1.5,5.7c0.5,3.3,2.8,7,6.8,11l0.4,0.4c5.5,5.5,9.6,6.9,12.3,6.9c2.7,0,4.1-1.3,4.4-1.6
		C37.3,35,37.7,33.7,37.4,32.1z M35.2,34.7c-1.7,1.7-6.5,2.4-14.2-5.3L20.6,29c-3.7-3.7-5.8-7.1-6.3-10c-0.3-2.1,0.3-3.5,1-4.2
		c0.4-0.4,0.9-0.5,1.5-0.5c1.1,0,2.4,0.5,3.2,1.3c0.9,0.9,1.9,2.3,1.5,4.1c-0.3,1.4-1.8,2.3-2.2,2.5l-0.8,0.5l0.5,0.8
		c0.5,0.8,1.8,2.6,3.4,4.1c1.7,1.7,3.5,3,4.3,3.5l0.8,0.5l0.5-0.8c0.2-0.4,1.1-1.9,2.5-2.2c1.8-0.4,3.2,0.6,4.1,1.5
		c0.6,0.6,1,1.5,1.2,2.5C35.8,33.4,35.7,34.2,35.2,34.7z"/>
	<path class="st0" d="M25.4,19.5c2.6,0,4.8,2.2,4.8,4.8c0,0.5,0.4,0.9,0.9,0.9s0.9-0.4,0.9-0.9c0-3.6-2.9-6.6-6.6-6.6
		c-0.5,0-0.9,0.4-0.9,0.9S24.9,19.5,25.4,19.5z"/>
	<path class="st0" d="M25.4,15.7c4.7,0,8.6,3.9,8.6,8.6c0,0.5,0.4,0.9,0.9,0.9s0.9-0.4,0.9-0.9c0-5.7-4.7-10.4-10.4-10.4
		c-0.5,0-0.9,0.4-0.9,0.9C24.5,15.3,24.9,15.7,25.4,15.7z"/>
</g>
</svg>
