<?xml version="1.0" encoding="utf-8"?>
<!-- Generator: Adobe Illustrator 27.8.0, SVG Export Plug-In . SVG Version: 6.00 Build 0)  -->
<svg version="1.1" id="Layer_1" xmlns="http://www.w3.org/2000/svg" xmlns:xlink="http://www.w3.org/1999/xlink" x="0px" y="0px"
	 viewBox="0 0 50 50" style="enable-background:new 0 0 50 50;" xml:space="preserve">
<style type="text/css">
	.st0{fill:#15A7C6;}
</style>
<g>
	<path class="st0" d="M40.8,21.8v-4.2c0-1.9-1.5-3.4-3.4-3.4h-1.2l-0.4-4l-27.1,4H7.5v25.5h29.9c1.9,0,3.4-1.5,3.4-3.4v-5.9
		c1-0.2,1.7-1.1,1.7-2.2v-4.4C42.5,22.9,41.8,22,40.8,21.8z M40,28h-7.6v-3.8H40V28z M33.5,13.2l0.1,1.1h-7.4L33.5,13.2z M37.4,37.2
		H10V16.8h27.4c0.5,0,0.8,0.4,0.8,0.8v4.1h-8.5v8.9h8.5v5.8C38.3,36.8,37.9,37.2,37.4,37.2z"/>
	<path class="st0" d="M23.4,25c-0.1,0-0.1,0-0.2,0c-0.5,0.1-0.9,0.6-0.8,1.1l0,0.2c0,0.1,0,0.2,0.1,0.4c0,0.7-0.2,1.4-0.6,2.1
		c-0.7,1.1-1.6,2-2.8,2.8c-0.2,0.1-0.4,0.2-0.5,0.3l0-4.4l2.3-2.1c0.2-0.2,0.4-0.3,0.5-0.5c0.2-0.2,0.3-0.5,0.2-0.8
		c-0.1-0.3-0.3-0.5-0.7-0.6c-0.1,0-0.1,0-0.2,0c-0.2,0-0.4,0.1-0.6,0.3l-1.6,1.5l0-0.8l2-1.8c0.2-0.2,0.5-0.4,0.7-0.7
		c0.2-0.2,0.3-0.4,0.3-0.7c0-0.3-0.1-0.5-0.3-0.6c-0.2-0.1-0.3-0.2-0.5-0.2c-0.2,0-0.5,0.1-0.6,0.3l-1.5,1.3v-1.5
		c0-0.2,0-0.6-0.5-0.9c-0.1,0-0.1-0.1-0.2-0.1l-0.1,0h-0.4l-0.1,0c-0.1,0-0.1,0-0.2,0.1c-0.3,0.2-0.5,0.5-0.5,0.9l0,3.3
		c-0.2,0.2-0.4,0.3-0.5,0.5l-1.5,1.3c-0.1,0.1-0.4,0.3-0.4,0.7v0.2l0,0.2l0.1,0c0.2,0.4,0.4,0.6,0.8,0.6c0.2,0,0.5-0.1,0.7-0.3
		l0.5-0.5l0.4-0.4l0,0.8l-2,1.8c-0.1,0.1-0.1,0.1-0.2,0.2c-0.2,0.3-0.3,0.6-0.1,0.9c0.1,0.3,0.4,0.5,0.8,0.5c0.2,0,0.4-0.1,0.6-0.3
		l0.9-0.8l0,0.9c0,1.1,0,2.1,0,3.2c0,0.3,0.1,0.5,0.3,0.7c0.2,0.2,0.5,0.3,0.7,0.3c0.1,0,0.2,0,0.3,0c0.4-0.1,0.9-0.3,1.3-0.5
		c1-0.5,1.9-1.1,2.8-2c0.8-0.8,1.4-1.6,1.8-2.4c0.7-1.3,0.8-2.5,0.6-3.8C24.2,25.3,23.9,25,23.4,25z"/>
</g>
</svg>
