<?xml version="1.0" encoding="utf-8"?>
<!-- Generator: Adobe Illustrator 27.8.0, SVG Export Plug-In . SVG Version: 6.00 Build 0)  -->
<svg version="1.1" id="Layer_1" xmlns="http://www.w3.org/2000/svg" xmlns:xlink="http://www.w3.org/1999/xlink" x="0px" y="0px"
	 viewBox="0 0 50 50" style="enable-background:new 0 0 50 50;" xml:space="preserve">
<style type="text/css">
	.st0{fill:#9AAD61;}
</style>
<path class="st0" d="M19.9,43.5l-0.7-5.9c-0.4-0.2-0.8-0.3-1.1-0.6c-0.4-0.2-0.7-0.4-1-0.7l-5.5,2.3l-5.1-8.8l4.7-3.6
	c0-0.2,0-0.4,0-0.6v-1.2c0-0.2,0-0.4,0-0.6l-4.7-3.6l5.1-8.8l5.5,2.3c0.3-0.2,0.7-0.5,1.1-0.7c0.4-0.2,0.7-0.4,1.1-0.6l0.7-5.9h10.1
	l0.7,5.9c0.4,0.2,0.8,0.3,1.1,0.6c0.4,0.2,0.7,0.4,1,0.7l5.5-2.3l5.1,8.8l-4.7,3.6c0,0.2,0,0.4,0,0.6v1.2c0,0.2,0,0.4-0.1,0.6
	l4.7,3.6l-5.1,8.8L33,36.3c-0.3,0.2-0.7,0.5-1.1,0.7c-0.4,0.2-0.7,0.4-1.1,0.6l-0.7,5.9H19.9z M23.2,39.8h3.6l0.6-4.9
	c1-0.2,1.8-0.6,2.6-1.1c0.8-0.5,1.6-1.1,2.2-1.7l4.6,1.9l1.8-3.1l-4-3c0.2-0.4,0.3-0.9,0.3-1.4s0.1-1,0.1-1.5s0-1-0.1-1.5
	s-0.2-0.9-0.3-1.4l4-3L36.9,16L32.3,18c-0.7-0.7-1.4-1.3-2.2-1.8c-0.8-0.5-1.7-0.8-2.6-1.1l-0.6-4.9h-3.6l-0.6,4.9
	c-1,0.2-1.8,0.6-2.6,1.1c-0.8,0.5-1.6,1.1-2.2,1.7L13.1,16l-1.8,3.1l4,3c-0.2,0.5-0.3,0.9-0.3,1.4s-0.1,1-0.1,1.5c0,0.5,0,1,0.1,1.4
	s0.2,0.9,0.3,1.4l-4,3l1.8,3.1l4.6-1.9c0.7,0.7,1.4,1.3,2.2,1.8c0.8,0.5,1.7,0.8,2.6,1.1L23.2,39.8z M25.1,31.5
	c1.8,0,3.3-0.6,4.6-1.9c1.3-1.3,1.9-2.8,1.9-4.6c0-1.8-0.6-3.3-1.9-4.6c-1.3-1.3-2.8-1.9-4.6-1.9c-1.8,0-3.3,0.6-4.6,1.9
	s-1.9,2.8-1.9,4.6c0,1.8,0.6,3.3,1.9,4.6C21.8,30.8,23.3,31.5,25.1,31.5z"/>
</svg>
