<?xml version="1.0" encoding="utf-8"?>
<!-- Generator: Adobe Illustrator 25.4.8, SVG Export Plug-In . SVG Version: 6.00 Build 0)  -->
<svg version="1.1" id="Layer_1" xmlns="http://www.w3.org/2000/svg" xmlns:xlink="http://www.w3.org/1999/xlink" x="0px" y="0px"
	 viewBox="0 0 50 50" style="enable-background:new 0 0 50 50;" xml:space="preserve">
<style type="text/css">
	.st0{fill:#809BAD;}
</style>
<path class="st0" d="M33.1,12.3L16.3,29.1c-0.6,0.6-0.6,1.5,0,2.1c0.6,0.6,1.5,0.6,2.1,0l16.7-16.7c1.4-1.4,3.6-1.4,5,0s1.4,3.6,0,5
	l-5,5l-1.3,1.3L22.9,36.6c-3.2,3.2-8.4,3.2-11.6,0s-3.2-8.4,0-11.6l12.5-12.5c0.6-0.6,0.6-1.5,0-2.1c-0.6-0.6-1.5-0.6-2.1,0L9.2,23
	c-4.3,4.3-4.3,11.4,0,15.8s11.4,4.3,15.8,0l10.9-10.9l1.3-1.3l5-5c2.5-2.5,2.5-6.6,0-9.1C39.7,9.8,35.6,9.8,33.1,12.3z"/>
</svg>
