<?xml version="1.0" encoding="utf-8"?>
<!-- Generator: Adobe Illustrator 27.8.0, SVG Export Plug-In . SVG Version: 6.00 Build 0)  -->
<svg version="1.1" id="Layer_1" xmlns="http://www.w3.org/2000/svg" xmlns:xlink="http://www.w3.org/1999/xlink" x="0px" y="0px"
	 viewBox="0 0 50 50" style="enable-background:new 0 0 50 50;" xml:space="preserve">
<style type="text/css">
	.st0{fill:#809BAD;}
</style>
<path class="st0" d="M36.8,23.6H17.6c-0.7,0-1.2,0.5-1.2,1.2c0,0.7,0.5,1.2,1.2,1.2h19.2c1.6,0,2.8,1.3,2.8,2.8
	c0,1.6-1.3,2.8-2.8,2.8h-5.7h-1.5H17c-3.7,0-6.6-3-6.6-6.6s3-6.6,6.6-6.6h14.3c0.7,0,1.2-0.5,1.2-1.2c0-0.7-0.5-1.2-1.2-1.2H17
	c-5,0-9,4-9,9s4,9,9,9h12.5h1.5h5.7c2.9,0,5.2-2.3,5.2-5.2C42,25.9,39.7,23.6,36.8,23.6z"/>
</svg>
