<?xml version="1.0" encoding="utf-8"?>
<!-- Generator: Adobe Illustrator 27.8.0, SVG Export Plug-In . SVG Version: 6.00 Build 0)  -->
<svg version="1.1" id="Layer_1" xmlns="http://www.w3.org/2000/svg" xmlns:xlink="http://www.w3.org/1999/xlink" x="0px" y="0px"
	 viewBox="0 0 50 50" style="enable-background:new 0 0 50 50;" xml:space="preserve">
<style type="text/css">
	.st0{fill:#809BAD;}
</style>
<g>
	<path class="st0" d="M13.8,15.3H26c0.6,0,1-0.5,1-1s-0.5-1-1-1H13.8c-0.6,0-1,0.5-1,1S13.3,15.3,13.8,15.3z"/>
	<path class="st0" d="M27.4,30.3H13.8c-0.6,0-1,0.5-1,1s0.5,1,1,1h13.6c0.6,0,1-0.5,1-1S28,30.3,27.4,30.3z"/>
	<path class="st0" d="M32.9,25.8h-19c-0.6,0-1,0.5-1,1c0,0.6,0.5,1,1,1h19c0.6,0,1-0.5,1-1C33.9,26.3,33.4,25.8,32.9,25.8z"/>
	<path class="st0" d="M13.8,19.7h8.1c0.6,0,1-0.5,1-1s-0.5-1-1-1h-8.1c-0.6,0-1,0.5-1,1S13.3,19.7,13.8,19.7z"/>
	<path class="st0" d="M41.5,16.8c0-2-1-3.8-2.5-4.9V8.8c0-1.7-1.4-3.1-3.1-3.1H11.6c-1.7,0-3.1,1.4-3.1,3.1l0,33.8
		c0,0.2,0.1,0.4,0.2,0.5c0,0.3,0.1,0.5,0.3,0.8c0.2,0.2,0.5,0.3,0.7,0.3c0.3,0,0.5-0.1,0.7-0.3l3.8-3.8l5.1,3.7l4.4-4.5l5.1,3.7
		l4.4-4.5l4.3,3.1c0.5,0.3,1.1,0.2,1.4-0.2c0.1-0.2,0.2-0.4,0.2-0.7c0,0,0,0,0,0v-19C40.5,20.6,41.5,18.8,41.5,16.8z M32.8,35.8
		l-4.4,4.5l-5.1-3.7L19,41l-5.1-3.7l-3.4,3.5l0-32c0-0.6,0.5-1,1-1h24.4c0.6,0,1,0.5,1,1v2.1c-0.5-0.1-1-0.2-1.5-0.2
		c-3.3,0-6.1,2.7-6.1,6.1c0,3.3,2.7,6.1,6.1,6.1c0.5,0,1-0.1,1.5-0.2v16.1L32.8,35.8z M35.4,20.8c-2.2,0-4-1.8-4-4s1.8-4,4-4
		c2.2,0,4,1.8,4,4S37.7,20.8,35.4,20.8z"/>
</g>
</svg>
