<?xml version="1.0" encoding="utf-8"?>
<!-- Generator: Adobe Illustrator 25.4.8, SVG Export Plug-In . SVG Version: 6.00 Build 0)  -->
<svg version="1.1" id="Layer_1" xmlns="http://www.w3.org/2000/svg" xmlns:xlink="http://www.w3.org/1999/xlink" x="0px" y="0px"
	 viewBox="0 0 50 50" style="enable-background:new 0 0 50 50;" xml:space="preserve">
<style type="text/css">
	.st0{fill:#809BAD;}
</style>
<g>
	<path class="st0" d="M12.8,14.4h13.3c0.6,0,1.1-0.5,1.1-1.1c0-0.6-0.5-1.1-1.1-1.1H12.8c-0.6,0-1.1,0.5-1.1,1.1
		C11.7,13.9,12.2,14.4,12.8,14.4z"/>
	<path class="st0" d="M27.7,30.8H12.8c-0.6,0-1.1,0.5-1.1,1.1s0.5,1.1,1.1,1.1h14.9c0.6,0,1.1-0.5,1.1-1.1S28.3,30.8,27.7,30.8z"/>
	<path class="st0" d="M33.6,25.9H12.8c-0.6,0-1.1,0.5-1.1,1.1c0,0.6,0.5,1.1,1.1,1.1h20.8c0.6,0,1.1-0.5,1.1-1.1
		C34.7,26.4,34.2,25.9,33.6,25.9z"/>
	<path class="st0" d="M12.8,19.2h8.9c0.6,0,1.1-0.5,1.1-1.1c0-0.6-0.5-1.1-1.1-1.1h-8.9c-0.6,0-1.1,0.5-1.1,1.1
		C11.7,18.7,12.2,19.2,12.8,19.2z"/>
	<path class="st0" d="M43,16.1c0-2.2-1.1-4.2-2.7-5.4V7.3c0-1.8-1.5-3.3-3.3-3.3H10.3C8.5,4,7,5.5,7,7.3l0,36.9
		c0,0.2,0.1,0.4,0.2,0.6c0,0.3,0.1,0.6,0.3,0.8C7.7,45.9,8,46,8.3,46c0.3,0,0.6-0.1,0.8-0.3l4.1-4.2l5.5,4l4.8-4.9l5.5,4l4.8-4.9
		l4.7,3.4c0.5,0.4,1.2,0.2,1.6-0.2c0.2-0.2,0.2-0.5,0.2-0.7c0,0,0,0,0,0V21.4C41.9,20.2,43,18.3,43,16.1z M33.5,36.8l-4.8,4.9
		l-5.5-4l-4.8,4.9l-5.5-4l-3.7,3.8l0-35c0-0.6,0.5-1.1,1.1-1.1h26.6c0.6,0,1.1,0.5,1.1,1.1v2.3c-0.5-0.1-1.1-0.2-1.7-0.2
		c-3.7,0-6.6,3-6.6,6.6c0,3.7,3,6.6,6.6,6.6c0.6,0,1.1-0.1,1.7-0.2V40L33.5,36.8z M36.4,20.5c-2.4,0-4.4-2-4.4-4.4s2-4.4,4.4-4.4
		c2.4,0,4.4,2,4.4,4.4S38.8,20.5,36.4,20.5z"/>
</g>
</svg>
