<?xml version="1.0" encoding="utf-8"?>
<!-- Generator: Adobe Illustrator 25.4.8, SVG Export Plug-In . SVG Version: 6.00 Build 0)  -->
<svg version="1.1" id="Layer_1" xmlns="http://www.w3.org/2000/svg" xmlns:xlink="http://www.w3.org/1999/xlink" x="0px" y="0px"
	 viewBox="0 0 50 50" style="enable-background:new 0 0 50 50;" xml:space="preserve">
<style type="text/css">
	.st0{fill:#809BAD;}
</style>
<g>
	<path class="st0" d="M18.9,35.9l6.2-6.8l-6.2-6.8h-4.4v-2.8c1.9,0.5,5.5,1.3,9.5,1.5v0.9c0,0.3,0.3,0.6,0.6,0.6h2.9
		c0.3,0,0.6-0.3,0.6-0.6v-0.9c4-0.2,7.6-1,9.5-1.5v7.8c-0.6-0.3-1.3-0.5-2-0.6v-1.3c0-0.6-0.5-1.1-1.1-1.1s-1.1,0.5-1.1,1.1v1.3
		c-3.8,0.5-6.7,3.8-6.7,7.7c0,0.5,0.1,0.9,0.1,1.4c-0.3,0.2-0.4,0.5-0.4,0.8c0,0.6,0.5,1.1,1.1,1.1h13.9c0.6,0,1.1-0.5,1.1-1.1
		c0-0.3-0.2-0.6-0.4-0.8c0.1-0.5,0.1-0.9,0.1-1.4c0-2.2-1-4.2-2.5-5.7V13.5c0-1.6-1.3-2.8-2.8-2.8h-6.1V4.8c0-0.8-0.7-1.5-1.6-1.5
		h-6.3c-0.9,0-1.6,0.7-1.6,1.5v5.9h-6.1c-1.6,0-2.8,1.3-2.8,2.8v8.9H5.8l6.2,6.8l-6.2,6.8H18.9z M40,34.5c0,0.4-0.1,0.8-0.1,1.2H29
		c-0.1-0.4-0.1-0.8-0.1-1.2c0-3.1,2.5-5.6,5.6-5.6S40,31.4,40,34.5z M23.4,5.5h5.2v5.2h-5.2V5.5z M15.2,12.8h21.7
		c0.4,0,0.7,0.3,0.7,0.7v3.9c-1.5,0.4-5.3,1.3-9.5,1.5v-1.5c0-0.3-0.3-0.6-0.6-0.6h-2.9c-0.3,0-0.6,0.3-0.6,0.6v1.5
		c-4.1-0.2-7.9-1.1-9.5-1.5v-3.9C14.5,13.1,14.8,12.8,15.2,12.8z M10.7,24.6H18l4.2,4.6L18,33.8h-7.3l4.2-4.6L10.7,24.6z"/>
	<path class="st0" d="M41.4,39.2H27.5c-0.6,0-1.1,0.5-1.1,1.1s0.5,1.1,1.1,1.1h10.1v1.1c0,0.4-0.3,0.7-0.7,0.7H15.2
		c-0.4,0-0.7-0.3-0.7-0.7V38h-2.2v4.5c0,1.6,1.3,2.8,2.8,2.8h21.7c1.6,0,2.8-1.3,2.8-2.8v-1.1h1.7c0.6,0,1.1-0.5,1.1-1.1
		S42,39.2,41.4,39.2z"/>
</g>
</svg>
