<?xml version="1.0" encoding="utf-8"?>
<!-- Generator: Adobe Illustrator 27.8.0, SVG Export Plug-In . SVG Version: 6.00 Build 0)  -->
<svg version="1.1" id="Layer_1" xmlns="http://www.w3.org/2000/svg" xmlns:xlink="http://www.w3.org/1999/xlink" x="0px" y="0px"
	 viewBox="0 0 50 50" style="enable-background:new 0 0 50 50;" xml:space="preserve">
<style type="text/css">
	.st0{fill:#809BAD;}
</style>
<g>
	<path class="st0" d="M20.2,35.8l5.8-6.3l-5.8-6.3h-4.1v-2.6c1.8,0.4,5.1,1.2,8.8,1.4v0.8c0,0.3,0.2,0.5,0.5,0.5h2.7
		c0.3,0,0.5-0.2,0.5-0.5V22c3.7-0.2,7.1-0.9,8.8-1.4v7.3c-0.6-0.3-1.2-0.4-1.9-0.5v-1.2c0-0.6-0.4-1-1-1c-0.6,0-1,0.4-1,1v1.2
		c-3.5,0.5-6.2,3.5-6.2,7.1c0,0.4,0.1,0.9,0.1,1.3c-0.2,0.2-0.4,0.5-0.4,0.8c0,0.6,0.4,1,1,1H41c0.6,0,1-0.4,1-1
		c0-0.3-0.2-0.6-0.4-0.8c0.1-0.4,0.1-0.9,0.1-1.3c0-2.1-0.9-3.9-2.3-5.2V15c0-1.4-1.2-2.6-2.6-2.6h-5.6V6.9c0-0.8-0.7-1.4-1.5-1.4
		h-5.9c-0.8,0-1.5,0.6-1.5,1.4v5.4h-5.6c-1.4,0-2.6,1.2-2.6,2.6v8.3H8l5.8,6.3L8,35.8H20.2z M39.7,34.5c0,0.4-0.1,0.7-0.1,1.1H29.5
		c-0.1-0.4-0.1-0.7-0.1-1.1c0-2.9,2.3-5.2,5.2-5.2S39.7,31.6,39.7,34.5z M24.4,7.5h4.8v4.8h-4.8V7.5z M16.7,14.4h20.1
		c0.3,0,0.6,0.3,0.6,0.6v3.6C36,19,32.5,19.8,28.7,20v-1.3c0-0.3-0.2-0.5-0.5-0.5h-2.7c-0.3,0-0.5,0.2-0.5,0.5V20
		c-3.8-0.2-7.4-1.1-8.8-1.4V15C16.1,14.6,16.4,14.4,16.7,14.4z M12.6,25.2h6.8l3.9,4.3l-3.9,4.3h-6.8l3.9-4.3L12.6,25.2z"/>
	<path class="st0" d="M41,38.8H28.1c-0.6,0-1,0.4-1,1c0,0.6,0.4,1,1,1h9.4v1c0,0.3-0.3,0.6-0.6,0.6H16.7c-0.3,0-0.6-0.3-0.6-0.6
		v-4.1h-2v4.1c0,1.4,1.2,2.6,2.6,2.6h20.1c1.4,0,2.6-1.2,2.6-2.6v-1H41c0.6,0,1-0.4,1-1C42,39.3,41.6,38.8,41,38.8z"/>
</g>
</svg>
